<svg width="153" height="156" viewBox="0 0 153 156" fill="none" xmlns="http://www.w3.org/2000/svg">
<rect x="52.1807" y="10.5479" width="25.465" height="103.358" rx="12.7325" transform="rotate(30 52.1807 10.5479)" fill="#FF546D"/>
<rect x="127.28" y="46.3711" width="26.544" height="109.837" rx="13.272" transform="rotate(30 127.28 46.3711)" fill="#00D4E6"/>
<path d="M19.9079 108.227C14.4956 106.849 8.11158 105.737 5.92293 100.599C4.34352 96.8906 4.46589 92.511 6.63624 88.7519C9.004 84.6508 13.23 82.2915 17.6366 82.1233C22.5209 81.937 27.335 83.9934 32.0855 85.1439C38.7431 86.7562 49.7409 90.435 64.2446 98.8087C78.7482 107.182 87.4331 114.867 92.1583 119.827C95.5299 123.366 99.7178 126.507 101.999 130.83C104.056 134.73 104.126 139.57 101.758 143.671C99.5879 147.43 95.8563 149.726 91.8554 150.212C86.3112 150.885 82.1563 145.913 78.2566 141.914C73.5659 137.105 65.208 130.015 50.9726 121.797C36.7372 113.578 26.4181 109.885 19.9079 108.227Z" fill="#6D86F5"/>
<path d="M74.7443 13.2501C70.8446 9.25199 66.6898 4.27915 61.1455 4.95287C57.1446 5.43906 53.413 7.73481 51.2427 11.494C48.8749 15.595 48.9446 20.4345 51.0023 24.3349C53.2831 28.6579 57.4711 31.7989 60.8426 35.3377C65.5678 40.2972 74.2527 47.9822 88.7563 56.3558C103.26 64.7295 114.258 68.4084 120.915 70.0207C125.666 71.1712 130.48 73.2276 135.364 73.0413C139.771 72.8731 143.997 70.5138 146.365 66.4127C148.535 62.6535 148.657 58.274 147.078 54.566C144.889 49.4277 138.505 48.3159 133.093 46.9377C126.583 45.28 116.264 41.5868 102.028 33.368C87.7929 25.1492 79.4351 18.0592 74.7443 13.2501Z" fill="#FFAA50"/>
<rect x="56.6738" y="2.7644" width="25.465" height="58.4198" rx="12.7325" transform="rotate(30 56.6738 2.7644)" fill="#FF546D"/>
<rect x="104.647" y="85.5725" width="26.544" height="64.572" rx="13.272" transform="rotate(30 104.647 85.5725)" fill="#00D4E6"/>
</svg>
